<?xml version="1.0" standalone="no"?>
<!DOCTYPE svg PUBLIC "-//W3C//DTD SVG 20010904//EN"
 "http://www.w3.org/TR/2001/REC-SVG-20010904/DTD/svg10.dtd">
<svg version="1.0" xmlns="http://www.w3.org/2000/svg"
 width="400.000000pt" height="400.000000pt" viewBox="0 0 400.000000 400.000000"
 preserveAspectRatio="xMidYMid meet">
<metadata>
Created by potrace 1.14, written by Peter Selinger 2001-2017
</metadata>
<g transform="translate(0.000000,400.000000) scale(0.100000,-0.100000)"
fill="#000000" stroke="none">
<path d="M1506 3512 c-3 -5 -6 -231 -7 -503 l-1 -494 -56 -53 c-31 -30 -63
-57 -72 -61 -8 -5 -224 -7 -480 -7 -256 1 -476 -1 -489 -4 l-24 -6 0 -492 c0
-271 2 -495 5 -497 2 -2 253 -6 558 -7 l555 -3 3 -550 c1 -302 4 -555 6 -561
5 -13 984 -16 992 -3 3 5 6 215 6 466 l2 458 49 32 c56 36 115 89 144 129 l21
28 447 3 c246 1 450 5 454 8 8 9 8 974 -1 988 -5 8 -148 11 -497 12 l-490 0
-63 59 -63 58 -2 491 c-1 269 -4 496 -7 503 -4 10 -102 13 -495 13 -270 0
-492 -3 -495 -7z"/>
<path d="M2723 3370 c-28 -12 -53 -60 -53 -104 0 -27 7 -39 30 -56 37 -26 84
-29 110 -5 19 17 19 18 -2 35 -17 14 -26 15 -40 7 -27 -17 -45 5 -32 40 15 43
62 43 55 1 0 -5 5 -8 13 -8 8 0 22 -3 31 -6 14 -6 16 -1 13 26 -5 52 -74 91
-125 70z"/>
<path d="M1024 3254 l-21 -15 19 -77 c11 -42 21 -84 23 -92 2 -8 4 -16 4 -18
3 -11 51 34 51 48 0 25 24 42 52 35 16 -4 29 0 41 13 18 19 16 21 -55 71 -40
28 -77 51 -83 50 -5 0 -19 -7 -31 -15z m71 -74 c3 -5 -1 -10 -9 -10 -9 0 -16
5 -16 10 0 6 4 10 9 10 6 0 13 -4 16 -10z"/>
<path d="M2870 3243 c-38 -34 -46 -74 -24 -113 35 -58 107 -68 148 -19 14 17
26 34 27 37 6 51 4 59 -26 89 -42 42 -83 44 -125 6z m94 -49 c3 -7 -5 -26 -18
-41 -20 -24 -26 -25 -40 -14 -21 18 -20 30 5 57 22 23 44 23 53 -2z"/>
<path d="M904 3158 c-56 -30 -82 -91 -49 -118 14 -12 30 -11 100 6 26 6 28 5
17 -8 -7 -9 -21 -14 -30 -11 -21 5 -57 -31 -47 -48 5 -7 22 -9 47 -6 97 13
122 142 27 139 -27 -1 -31 1 -16 9 23 13 22 24 -6 36 -16 8 -29 8 -43 1z m6
-68 c-8 -5 -17 -7 -19 -4 -3 3 1 9 9 14 8 5 17 7 19 4 3 -3 -1 -9 -9 -14z"/>
<path d="M3045 3123 c-65 -75 -68 -106 -13 -154 26 -22 40 -25 79 -20 7 1 99
91 99 97 0 3 -9 15 -20 27 l-21 21 -44 -48 c-38 -40 -48 -46 -60 -36 -21 17
-20 19 26 69 l40 43 -22 24 c-12 13 -23 24 -23 24 -1 -1 -19 -22 -41 -47z"/>
<path d="M739 2998 c-24 -28 -44 -55 -44 -59 0 -4 28 -33 63 -65 l63 -57 49
54 c27 30 50 57 50 60 0 4 -7 12 -15 19 -13 11 -21 8 -49 -19 -19 -18 -36 -29
-40 -23 -3 5 6 20 19 32 29 27 32 45 9 54 -11 4 -26 -4 -45 -26 -36 -40 -38
-21 -3 21 21 26 24 34 14 46 -7 8 -16 15 -19 15 -4 0 -27 -23 -52 -52z"/>
<path d="M3177 2953 l-68 -56 23 -24 c12 -13 24 -20 27 -16 3 5 16 17 28 27
l23 19 -14 -46 c-12 -39 -12 -49 1 -66 8 -12 17 -21 21 -21 4 0 37 24 73 53
67 53 67 53 49 77 l-17 23 -32 -22 c-36 -26 -35 -26 -17 26 12 35 12 41 -4 61
-10 12 -20 22 -22 22 -1 0 -34 -26 -71 -57z"/>
<path d="M627 2861 c-16 -28 -16 -29 15 -61 34 -36 36 -35 -38 -14 -16 4 -26
-2 -41 -27 l-21 -32 76 -50 c71 -46 77 -48 89 -31 15 20 17 34 6 34 -5 0 -19
9 -33 20 l-25 20 41 -14 c38 -13 41 -13 53 6 13 21 5 37 -29 65 -8 7 -10 13
-4 13 6 0 22 -9 36 -19 24 -19 24 -19 36 0 7 11 10 24 7 29 -10 16 -123 90
-137 90 -8 0 -21 -13 -31 -29z"/>
<path d="M3348 2836 c-15 -11 -16 -15 -3 -33 16 -23 8 -34 -52 -69 -36 -20
-39 -30 -18 -58 14 -18 16 -17 61 13 56 37 60 37 74 11 10 -19 12 -19 34 -5
l24 16 -45 69 c-25 39 -48 70 -52 70 -3 0 -14 -6 -23 -14z"/>
<path d="M3440 2635 c-17 -30 -37 -55 -44 -55 -7 0 -21 -6 -31 -14 -17 -12
-18 -17 -6 -39 13 -24 14 -25 49 -10 33 14 60 13 140 -3 16 -3 15 1 -3 36 -11
21 -23 30 -40 30 -28 0 -30 7 -10 34 12 16 12 22 -1 47 -8 16 -16 29 -19 29
-2 0 -18 -25 -35 -55z"/>
<path d="M3353 1197 c-5 -6 -22 -37 -38 -67 -15 -30 -36 -67 -47 -82 l-18 -26
50 -37 c53 -39 58 -46 37 -64 -11 -8 -25 -3 -63 24 -27 19 -52 35 -55 35 -3 0
-11 -12 -18 -26 -13 -30 -10 -33 67 -80 38 -23 47 -24 72 -14 33 13 57 46 64
84 5 27 -20 59 -79 104 l-30 23 35 -17 c19 -9 52 -28 73 -41 22 -14 40 -23 41
-21 2 2 19 33 40 69 l36 66 -25 11 c-14 6 -25 8 -25 4 0 -17 -41 -72 -50 -67
-5 3 0 21 12 41 18 30 19 37 7 45 -22 14 -27 11 -46 -21 -9 -16 -21 -30 -25
-30 -12 0 -10 5 13 44 20 34 20 35 1 45 -15 8 -22 7 -29 -2z"/>
<path d="M589 1169 c-17 -17 -19 -28 -13 -65 4 -31 3 -44 -6 -44 -6 0 -10 10
-9 23 6 54 -29 89 -49 50 -20 -39 15 -117 56 -128 15 -4 34 0 49 10 20 14 24
23 20 48 -4 31 -4 31 11 9 19 -29 30 -28 42 4 7 19 6 33 -6 57 -27 53 -64 67
-95 36z m56 -48 c3 -5 1 -12 -5 -16 -5 -3 -10 1 -10 9 0 18 6 21 15 7z"/>
<path d="M647 1020 c-37 -26 -71 -50 -74 -53 -10 -11 121 -177 136 -172 21 8
41 -14 41 -45 0 -15 8 -35 19 -44 18 -16 20 -15 54 46 59 108 57 101 36 127
l-20 24 -67 -23 c-37 -13 -73 -26 -81 -28 -9 -4 -12 -1 -7 6 4 7 -2 28 -14 48
-12 19 -19 38 -15 42 6 6 25 -14 44 -47 6 -10 13 -11 30 -2 l21 12 -25 33
c-14 18 -22 36 -18 39 3 4 17 -9 30 -28 26 -38 35 -42 51 -22 9 10 2 27 -25
68 -19 30 -38 57 -42 60 -3 4 -37 -15 -74 -41z m147 -205 c-4 -8 -8 -15 -10
-15 -2 0 -4 7 -4 15 0 8 4 15 10 15 5 0 7 -7 4 -15z"/>
<path d="M3170 902 c-45 -14 -79 -77 -65 -122 8 -24 54 -58 86 -64 55 -9 107
54 94 113 -6 28 -8 29 -31 19 -19 -9 -24 -18 -21 -35 7 -35 -17 -49 -49 -29
-29 20 -30 61 -1 61 18 0 37 21 37 41 0 14 -29 23 -50 16z"/>
<path d="M855 753 c-53 -60 -60 -79 -33 -97 14 -8 23 -5 44 14 29 27 28 29 10
-36 -6 -21 22 -64 42 -64 6 0 13 18 17 40 4 26 12 40 22 40 11 0 13 -5 8 -17
-5 -10 -10 -33 -13 -50 -8 -62 82 -117 131 -80 15 11 15 14 -2 34 -11 14 -22
18 -31 13 -38 -24 -54 26 -19 59 24 22 49 18 49 -9 0 -20 33 -36 51 -25 6 4 8
18 4 33 -11 46 -70 81 -115 69 -17 -4 -18 -2 -9 14 8 16 2 28 -37 69 -26 28
-52 50 -58 49 -6 0 -33 -25 -61 -56z m95 -39 c0 -8 -6 -11 -15 -8 -8 4 -15 12
-15 20 0 8 6 11 15 8 8 -4 15 -12 15 -20z"/>
<path d="M3012 751 c-18 -17 -32 -40 -32 -53 0 -17 -3 -20 -9 -9 -7 11 -20 7
-63 -25 -29 -21 -56 -42 -59 -47 -6 -8 51 -94 92 -141 5 -5 33 10 66 35 32 24
60 44 62 46 5 3 -26 33 -34 33 -3 0 -19 -10 -35 -22 -35 -26 -55 -15 -22 12
12 10 28 20 35 23 9 3 7 10 -5 23 -17 17 -19 17 -49 -5 -17 -12 -34 -20 -37
-16 -4 4 2 11 12 17 10 6 26 18 35 27 15 15 20 16 38 4 18 -12 26 -12 52 1 38
20 62 21 55 1 -4 -10 -14 -13 -29 -9 -17 4 -26 0 -35 -15 -26 -49 40 -58 89
-12 56 52 29 131 -38 114 -23 -6 -24 -4 -13 10 8 9 11 21 7 27 -12 19 -50 10
-83 -19z m48 -30 c0 -5 -7 -11 -15 -15 -15 -5 -20 5 -8 17 9 10 23 9 23 -2z"/>
<path d="M1149 586 c-7 -11 -23 -41 -36 -65 -12 -24 -27 -49 -33 -57 -9 -10
-4 -16 19 -29 30 -15 31 -15 43 10 11 25 41 34 53 15 4 -6 -1 -22 -10 -36 -16
-24 -15 -26 2 -40 10 -7 23 -14 30 -14 11 0 99 148 92 154 -18 15 -54 27 -56
19 -2 -6 -9 -17 -16 -26 -10 -14 -15 -14 -30 -2 -17 12 -17 15 -3 37 14 22 14
24 -13 39 -26 15 -29 15 -42 -5z"/>
<path d="M2775 574 c-16 -8 -40 -22 -52 -32 l-23 -17 42 -72 c23 -40 47 -73
53 -73 6 0 20 6 30 14 17 12 17 14 2 37 -26 37 -20 42 22 19 37 -21 39 -22 65
-5 30 20 23 39 -19 49 -20 5 -25 13 -25 39 0 56 -35 72 -95 41z m24 -65 c-9
-5 -15 -4 -18 2 -2 6 3 15 10 20 9 5 15 4 18 -2 2 -6 -3 -15 -10 -20z"/>
</g>
</svg>
